<svg xmlns="http://www.w3.org/2000/svg" viewBox="0 0 72 88" fill="none" aria-hidden="true">
  <!-- ??? · ??? · ? CSS mask ????????? -->
  <g stroke="#000" stroke-linecap="round" stroke-linejoin="round">
    <ellipse cx="36" cy="44" rx="30" ry="38" stroke-width="1.2"/>
    <path d="M36 44 C36 36 42 32 48 34 C54 36 54 44 48 48 C42 52 36 50 34 44 C32 38 36 34 40 34" stroke-width="1.1"/>
    <path d="M36 44 C36 52 30 56 24 52 C18 48 20 40 26 38 C32 36 38 40 38 46 C38 52 34 56 30 54" stroke-width="1"/>
    <path d="M14 44 C14 28 26 16 42 18 C58 20 62 36 54 50 C46 64 28 66 18 54 C8 42 12 26 24 20" stroke-width="0.9" opacity="0.85"/>
    <path d="M58 44 C58 60 46 72 30 70 C14 68 10 52 18 38 C26 24 44 22 54 34 C64 46 60 62 48 68" stroke-width="0.9" opacity="0.85"/>
    <path d="M36 8 C52 8 64 22 64 40 C64 58 50 72 36 74 C22 76 8 62 8 44 C8 26 20 10 36 8" stroke-width="0.8" opacity="0.7"/>
    <path d="M36 12 C24 12 14 24 14 38 C14 52 24 64 36 66 C48 68 60 56 60 42 C60 28 48 14 36 12" stroke-width="0.75" opacity="0.6"/>
    <path d="M22 28 C28 24 34 26 38 32" stroke-width="0.7" opacity="0.75"/>
    <path d="M50 28 C44 24 38 26 34 32" stroke-width="0.7" opacity="0.75"/>
    <path d="M22 60 C28 64 34 62 38 56" stroke-width="0.7" opacity="0.75"/>
    <path d="M50 60 C44 64 38 62 34 56" stroke-width="0.7" opacity="0.75"/>
  </g>
</svg>
