<svg xmlns="http://www.w3.org/2000/svg" xmlns:xlink="http://www.w3.org/1999/xlink" width="1439" height="200" viewBox="0 0 1463 224"><path transform="translate(0 100)" d="M53.5156,-34.6191L81.7871,-34.6191L81.7871,-58.7891L53.5156,-58.7891L53.5156,-34.6191ZM17.5293,-34.6191L45.8008,-34.6191L45.8008,-58.7891L17.5293,-58.7891L17.5293,-34.6191ZM85.0586,-68.0176L94.1895,-60.9863Q92.8223,-59.3262 91.5527,-58.6182Q90.2832,-57.9102 89.4043,-57.7637L89.4043,-24.1699Q89.3066,-22.9492 87.3047,-22.0215Q85.3027,-21.0938 83.6914,-21.0938L81.7871,-21.0938L81.7871,-29.3945L53.5156,-29.3945L53.5156,5.17578Q53.5156,6.5918 51.6602,7.66602Q49.8047,8.74023 47.998,8.74023L45.8008,8.74023L45.8008,-29.3945L17.5293,-29.3945L17.5293,-22.998Q17.5293,-21.9238 15.7471,-20.9473Q13.9648,-19.9707 12.0117,-19.9707L9.96094,-19.9707L9.96094,-67.5293L17.2363,-64.0137L45.8008,-64.0137L45.8008,-84.8633L57.2754,-83.4961Q56.6895,-80.9082 55.7617,-79.9072Q54.834,-78.9062 53.5156,-78.7109L53.5156,-64.0137L81.3965,-64.0137L85.0586,-68.0176Z"></path><path transform="translate(100 100)" d="M55.8594,-63.4766Q53.7109,-63.4766 52.4414,-64.6484Q51.7578,-67.5293 49.5605,-70.752Q47.3633,-73.9746 44.6289,-76.9287Q41.8945,-79.8828 38.4277,-82.8613L40.625,-84.4727Q54.0039,-79.7852 57.9102,-72.8027Q59.375,-70.166 59.375,-67.9199Q59.375,-64.9414 57.1777,-63.8184Q56.543,-63.4766 55.8594,-63.4766ZM93.4082,-57.8613L5.37109,-57.8613L3.75977,-63.1348L82.1289,-63.1348L87.3047,-68.9453Q87.9883,-68.7012 89.4531,-67.5293Q90.918,-66.3574 92.9688,-64.6729Q95.0195,-62.9883 97.168,-60.9375Q96.3379,-57.8613 93.4082,-57.8613ZM4.49219,9.13086L2.88086,5.76172Q38.623,-6.88477 54.248,-27.0508Q64.9414,-40.918 69.4336,-57.8613L78.8086,-57.8613Q76.7578,-50.0977 71.4355,-39.8926Q66.1133,-29.6875 59.1797,-22.2168Q40.7715,-2.14844 4.49219,9.13086ZM90.6738,8.88672Q56.0059,-2.34375 39.1113,-26.2207Q28.4668,-40.332 24.4141,-57.8613L29.1016,-57.8613Q34.668,-38.9648 49.707,-23.8281Q67.4805,-6.78711 97.9492,1.07422L97.168,3.56445Q94.5801,3.71094 93.1641,4.93164Q91.748,6.15234 90.6738,8.88672Z"></path><path transform="translate(200 100)" d="M20.2148,-6.29883L17.6758,-9.08203Q27.1973,-21.9727 33.0566,-40.7227Q27.3926,-52.4902 18.8477,-60.6445L21.6797,-63.1348Q30.6641,-55.0293 35.4492,-48.4863Q38.2812,-58.3496 39.8926,-69.8242L51.9043,-67.4805Q51.1719,-64.7949 50.0244,-64.0869Q48.877,-63.3789 47.3633,-63.3789Q44.8242,-51.8555 40.7715,-41.0645Q48.0957,-29.1504 48.0957,-21.2891Q48.0957,-19.4824 47.6562,-18.0664Q47.1191,-16.4551 45.8984,-16.4551Q44.5312,-16.4551 42.1875,-18.6035Q38.2324,-29.5898 37.1582,-32.0801Q35.0586,-27.0508 30.7617,-19.9219Q26.4648,-12.793 20.2148,-6.29883ZM46.5332,-4.00391L43.6523,-6.44531Q54.834,-20.0684 61.4746,-39.3555Q59.2773,-44.5312 56.2012,-50.0244Q53.125,-55.5176 48.3398,-61.1328L51.8555,-63.0371Q60.6934,-53.1738 64.2578,-47.4609Q67.1387,-56.25 69.4824,-69.8242L81.3965,-67.334Q80.6641,-64.7949 79.5654,-64.1113Q78.4668,-63.4277 77.002,-63.3789Q73.4375,-49.6582 69.1406,-39.2578Q72.6562,-32.7148 74.4141,-27.0508Q76.3184,-20.8496 76.3184,-17.041Q76.3184,-14.5508 74.9512,-12.9395Q74.2188,-12.1094 73.291,-12.1094Q72.0703,-12.1094 70.4102,-13.5254Q69.2871,-16.4551 67.749,-21.7041Q66.2109,-26.9531 65.0391,-30.0781Q58.0566,-15.0879 46.5332,-4.00391ZM77.0996,8.83789Q76.8555,6.83594 76.3184,6.05469Q75.7812,5.27344 75,4.93164Q72.0215,3.41797 64.2578,2.53906L64.2578,-1.2207Q73.291,-0.390625 80.4199,-0.244141Q81.6895,-0.244141 81.9824,-0.537109Q82.2754,-0.830078 82.2754,-1.80664L82.2754,-72.8027L17.627,-72.8027L17.627,5.32227Q17.627,6.54297 15.9912,7.59277Q14.3555,8.64258 12.3047,8.64258L10.0586,8.64258L10.0586,-82.1777L17.3828,-78.418L81.8848,-78.418L85.3027,-82.666L94.8242,-75.1953Q92.2363,-72.6074 89.8438,-72.168L89.8438,-1.2207Q89.8438,1.31836 89.0381,3.39355Q88.2324,5.46875 85.6934,6.81152Q83.1543,8.1543 77.0996,8.83789Z"></path><path transform="translate(300 100)" d="M52.9297,-69.2383Q51.3184,-69.2383 49.4141,-70.7031Q48.4863,-76.2207 40.9668,-83.1055L43.6035,-85.0098Q49.6094,-83.1543 52.5879,-80.7129Q57.1777,-76.9531 57.1777,-73.5352Q57.1777,-70.2148 54.0039,-69.4336Q53.4668,-69.2383 52.9297,-69.2383ZM8.34961,-50.293Q5.61523,-50.293 4.49219,-52.4902Q4.05273,-53.418 4.05273,-54.3457Q4.05273,-55.3223 4.80957,-56.6162Q5.56641,-57.9102 7.27539,-58.8867Q10.0586,-60.4492 12.207,-64.3066Q13.9648,-67.4316 13.9648,-71.9727Q13.9648,-72.998 13.8672,-74.0723L17.8223,-74.2676Q18.9941,-70.0195 18.9941,-69.2383L83.7891,-69.2383L88.1836,-73.7305L97.0215,-65.0879Q95.6543,-63.4277 94.5068,-63.2324Q93.3594,-63.0371 92.2852,-62.9883Q90.5273,-60.7422 87.1582,-57.3975Q83.7891,-54.0527 80.4199,-51.416L77.3438,-53.2227Q80.5176,-58.4473 82.6172,-63.9648L19.2383,-63.9648Q19.1406,-60.0098 17.2363,-56.7383Q13.5254,-50.3906 8.34961,-50.293ZM40.1367,8.64258Q39.6484,6.5918 39.2334,5.81055Q38.8184,5.0293 37.9883,4.58984Q35.4492,3.22266 27.7344,2.53906L27.7344,-1.41602Q41.5527,-0.537109 45.166,-0.537109Q46.2402,-0.537109 46.46,-0.708008Q46.6797,-0.878906 46.6797,-1.61133L46.6797,-24.1699L4.88281,-24.1699L3.27148,-29.4434L46.6797,-29.4434L46.6797,-39.3066L53.5156,-38.4766L62.8906,-46.4844L21.582,-46.4844L20.1172,-51.6602L66.5039,-51.6602L70.9473,-56.2012L79.9316,-47.8516Q77.6855,-45.9473 74.6582,-45.8008Q64.6484,-39.2578 57.7148,-36.2305Q57.373,-33.9844 54.2969,-33.4961L54.2969,-29.4434L81.4453,-29.4434L86.6211,-35.0586Q87.3047,-34.8145 88.7207,-33.667Q90.1367,-32.5195 92.1631,-30.8838Q94.1895,-29.248 96.3867,-27.2949Q95.5566,-24.1699 92.3828,-24.1699L54.2969,-24.1699L54.2969,-1.2207Q54.2969,1.36719 53.5645,3.41797Q52.832,5.46875 50.3662,6.73828Q47.9004,8.00781 40.1367,8.64258Z"></path><path transform="translate(400 100)" d="M26.709,-61.7676Q25.3418,-61.7676 23.6328,-62.8418Q23.0469,-66.0645 21.3379,-69.4092Q19.6289,-72.7539 16.9434,-75.9521Q14.2578,-79.1504 10.7422,-82.6172L13.8672,-84.2285Q31.0059,-76.0254 31.0547,-67.041Q31.0547,-64.8438 29.8096,-63.3057Q28.5645,-61.7676 26.709,-61.7676ZM19.5801,2.73438L14.9902,-6.34766Q17.9199,-7.71484 18.3105,-8.12988Q18.7012,-8.54492 18.7012,-9.42383L18.7012,-46.2402L4.78516,-46.2402L2.68555,-51.4648L19.4336,-51.4648L22.4609,-54.9316L30.0781,-48.6816Q28.6133,-46.1914 26.123,-45.6543L26.123,-10.9863Q32.8125,-14.6973 43.0664,-20.6543L44.8242,-17.2363Q40.8691,-14.2578 35.3027,-9.86328Q29.7363,-5.46875 23.584,-0.927734Q22.998,1.36719 19.5801,2.73438ZM62.8418,7.95898L60.6445,7.95898L60.6445,-48.291L35.5957,-48.291L34.2285,-53.5156L60.6445,-53.5156L60.6445,-84.668L71.9238,-83.3008Q71.582,-80.7129 70.5811,-79.7119Q69.5801,-78.7109 68.2617,-78.5156L68.2617,-53.5156L82.959,-53.5156L87.793,-59.0332Q88.4766,-58.7891 89.8682,-57.6904Q91.2598,-56.5918 93.1396,-54.9561Q95.0195,-53.3203 97.168,-51.3184Q96.2891,-48.291 93.3105,-48.291L68.2617,-48.291L68.2617,4.49219Q68.2617,5.95703 66.4062,6.95801Q64.5508,7.95898 62.8418,7.95898Z"></path><path transform="translate(500 100)" d="M46.2891,-62.9395Q44.5801,-62.9395 42.6758,-64.4531Q42.2852,-67.1875 40.8203,-69.8242Q37.6953,-75.4883 32.2754,-80.2734L35.1074,-82.373Q50.1465,-76.0742 50.1465,-67.627Q50.1465,-64.0625 47.2168,-63.0859Q46.7773,-62.9395 46.2891,-62.9395ZM80.127,8.74023Q79.6387,6.5918 79.1992,5.66406Q78.7598,4.73633 77.3193,3.85742Q75.8789,2.97852 68.457,1.95312L68.457,-1.41602Q76.5137,-0.830078 82.6172,-0.732422Q83.6914,-0.732422 83.9355,-0.976562Q84.1797,-1.2207 84.1797,-2.00195L84.1797,-82.8613L95.6055,-81.5918Q94.8242,-77.2949 91.6992,-76.9043L91.6992,-1.41602Q91.6992,1.17188 91.0156,3.32031Q90.332,5.46875 87.9883,6.78711Q85.6445,8.10547 80.127,8.74023ZM66.6992,-10.9863L64.5996,-10.9863L64.5996,-76.0742L75.9766,-74.8535Q75,-70.459 72.0215,-70.1172L72.0215,-14.3066Q72.0215,-13.0859 70.2637,-12.0361Q68.5059,-10.9863 66.6992,-10.9863ZM52.0996,5.12695Q43.6035,5.12695 34.4727,-6.29883Q31.7871,-9.61914 29.541,-13.3789Q19.7266,-3.66211 4.54102,4.44336L2.39258,0.78125Q17.0898,-8.59375 26.416,-19.3359Q25.5859,-21.1914 24.8047,-23.1445Q21.0938,-32.5684 19.5312,-50.0488L3.66211,-47.6074L1.75781,-52.6367L19.1406,-55.127Q18.3105,-66.2109 18.3105,-76.2207L18.4082,-85.4004L30.2734,-83.7402Q29.6387,-79.6875 26.7578,-79.1016Q26.6113,-75.7324 26.6113,-70.0684Q26.6113,-62.6465 26.9043,-56.2988L49.5117,-59.6191L53.418,-65.0391Q54.0039,-64.8438 55.3223,-64.0137Q56.6406,-63.1836 58.4473,-62.0117Q60.2539,-60.8398 62.1094,-59.4727Q62.1094,-56.0547 59.1309,-55.7617L28.2715,-51.3184L28.2715,-51.3672L27.2461,-51.2207Q28.418,-35.8398 32.0801,-26.1719Q33.8379,-28.2715 35.791,-31.4941Q41.2598,-40.4785 44.3848,-50.0488L54.6387,-45.6543Q53.6621,-43.3594 52.4902,-43.0176Q51.5137,-42.7246 50.0488,-42.7246Q45.8984,-32.1777 35.3027,-19.7266Q36.8164,-17.1387 38.5254,-14.9414Q42.9199,-9.17969 44.2871,-7.95898Q46.7285,-5.95703 47.9004,-5.95703Q48.3398,-5.95703 48.584,-6.29883Q50.9277,-10.8398 53.2227,-18.1152L56.5918,-17.5293L54.4434,-2.19727Q57.1289,-0.830078 57.1289,1.36719Q57.1289,3.36914 55.127,4.39453Q53.5156,5.12695 52.0996,5.12695Z"></path><path transform="translate(0 200)" d="M49.1211,1.12305L15.7715,1.12305L15.7715,-1.80664Q27.4414,-3.61328 27.4414,-5.22461Q27.6855,-14.9902 27.6855,-36.377Q27.6855,-57.7148 27.4414,-67.6758L10.0098,-67.6758Q7.42188,-67.6758 4.58984,-52.7832L1.02539,-52.7832L2.00195,-73.7305L62.793,-73.7305L63.8672,-52.7832L60.3027,-52.7832Q57.6172,-67.6758 54.7852,-67.6758L37.3047,-67.6758Q37.207,-54.248 37.207,-36.5723Q37.207,-18.9453 37.3047,-5.22461Q37.3047,-3.61328 49.1211,-1.80664L49.1211,1.12305Z"></path><path transform="translate(65 200)" d="M54.834,-4.98047Q54.834,-3.07617 62.8418,-1.61133L62.8418,1.12305L36.7676,1.12305L36.7676,-1.61133Q45.5566,-3.07617 45.5566,-4.98047Q45.6543,-8.10547 45.7275,-13.3789Q45.8008,-18.6523 45.8008,-22.7051L45.8008,-33.1055Q45.8008,-40.5273 43.5791,-43.2129Q41.3574,-45.8984 37.1094,-45.8984Q33.7402,-45.8984 29.6143,-44.165Q25.4883,-42.4316 20.8008,-37.6465L20.8008,-22.7051Q20.8008,-18.7988 20.874,-13.4521Q20.9473,-8.10547 21.0449,-4.98047Q21.0449,-3.07617 28.9062,-1.61133L28.9062,1.12305L2.88086,1.12305L2.88086,-1.61133Q11.6699,-3.07617 11.6699,-4.98047Q11.7676,-8.10547 11.8164,-13.4521Q11.8652,-18.7988 11.8652,-22.7051L11.8652,-71.8262Q11.8652,-74.7559 2.68555,-75.7324L2.68555,-77.7832L18.3594,-81.4941L20.9473,-80.1758L20.6055,-64.1113L20.6055,-44.7266Q23.4863,-47.9004 29.0527,-50.7568Q34.6191,-53.6133 39.9902,-53.6133Q47.1191,-53.6133 50.8789,-48.8525Q54.6387,-44.0918 54.6387,-33.2031L54.6387,-22.7051Q54.6387,-18.6523 54.6875,-13.3789Q54.7363,-8.10547 54.834,-4.98047Z"></path><path transform="translate(130 200)" d="M13.623,-30.7129L37.793,-30.6152Q39.9902,-30.6152 40.6738,-31.6406Q41.3574,-32.666 41.3574,-34.8145Q41.3574,-38.1836 39.8193,-41.1865Q38.2812,-44.1895 35.498,-46.0449Q32.7148,-47.9004 28.9062,-47.9004Q25.1953,-47.9004 21.8506,-45.8008Q18.5059,-43.7012 16.2598,-39.5752Q14.0137,-35.4492 13.623,-30.7129ZM49.1699,-25.0977L13.4277,-25.0977Q13.5254,-18.75 15.8936,-13.9893Q18.2617,-9.22852 22.1924,-6.98242Q26.123,-4.73633 31.1035,-4.73633Q36.1328,-4.73633 39.7217,-6.5918Q43.3105,-8.44727 46.875,-12.5L50.3418,-9.91211Q46.7285,-3.66211 41.3818,-0.561523Q36.0352,2.53906 29.2969,2.53906Q22.2168,2.53906 16.4795,-0.65918Q10.7422,-3.85742 7.39746,-10.1074Q4.05273,-16.3574 4.05273,-25.3906Q4.05273,-33.9355 7.54395,-40.2588Q11.0352,-46.582 16.7969,-50.0977Q22.5586,-53.6133 29.2969,-53.6133Q35.498,-53.6133 40.2344,-50.9033Q44.9707,-48.1934 47.6074,-43.335Q50.2441,-38.4766 50.2441,-32.1777Q50.2441,-28.125 49.1699,-25.0977Z"></path><path transform="translate(184 200)" d=""></path><path transform="translate(210 200)" d="M61.377,-20.6055L64.8926,-20.6055L64.4043,-3.27148Q58.5449,0.195312 53.1738,1.41602Q47.8027,2.63672 41.8945,2.63672Q30.8105,2.63672 22.4121,-2.29492Q14.0137,-7.22656 9.35059,-16.0156Q4.6875,-24.8047 4.6875,-36.2793Q4.6875,-44.8242 7.44629,-52.002Q10.2051,-59.1797 15.2344,-64.4043Q20.2637,-69.6289 27.0508,-72.5342Q33.8379,-75.4395 41.8945,-75.4395Q47.3633,-75.4395 52.5635,-74.2188Q57.7637,-72.998 63.623,-69.5312L63.916,-52.1973L60.498,-52.1973Q59.5215,-62.3535 54.6875,-66.1621Q52.0996,-67.627 49.0967,-68.4082Q46.0938,-69.1895 42.8223,-69.1895Q34.9121,-69.1895 28.7109,-65.332Q22.5098,-61.4746 18.9209,-54.1504Q15.332,-46.8262 15.332,-36.2793Q15.332,-25.7324 18.7988,-18.4326Q22.2656,-11.1328 28.3203,-7.32422Q34.375,-3.51562 42.2852,-3.51562Q45.8984,-3.51562 49.292,-4.24805Q52.6855,-4.98047 55.5664,-6.44531Q60.2051,-8.93555 61.377,-20.6055Z"></path><path transform="translate(279 200)" d="M54.834,-4.98047Q54.834,-3.07617 62.8418,-1.61133L62.8418,1.12305L36.7676,1.12305L36.7676,-1.61133Q45.5566,-3.07617 45.5566,-4.98047Q45.6543,-8.10547 45.7275,-13.3789Q45.8008,-18.6523 45.8008,-22.7051L45.8008,-33.1055Q45.8008,-40.5273 43.5791,-43.2129Q41.3574,-45.8984 37.1094,-45.8984Q33.7402,-45.8984 29.6143,-44.165Q25.4883,-42.4316 20.8008,-37.6465L20.8008,-22.7051Q20.8008,-18.7988 20.874,-13.4521Q20.9473,-8.10547 21.0449,-4.98047Q21.0449,-3.07617 28.9062,-1.61133L28.9062,1.12305L2.88086,1.12305L2.88086,-1.61133Q11.6699,-3.07617 11.6699,-4.98047Q11.7676,-8.10547 11.8164,-13.4521Q11.8652,-18.7988 11.8652,-22.7051L11.8652,-71.8262Q11.8652,-74.7559 2.68555,-75.7324L2.68555,-77.7832L18.3594,-81.4941L20.9473,-80.1758L20.6055,-64.1113L20.6055,-44.7266Q23.4863,-47.9004 29.0527,-50.7568Q34.6191,-53.6133 39.9902,-53.6133Q47.1191,-53.6133 50.8789,-48.8525Q54.6387,-44.0918 54.6387,-33.2031L54.6387,-22.7051Q54.6387,-18.6523 54.6875,-13.3789Q54.7363,-8.10547 54.834,-4.98047Z"></path><path transform="translate(344 200)" d="M16.2109,-65.6738Q13.4277,-65.6738 11.4502,-67.5049Q9.47266,-69.3359 9.47266,-72.2168Q9.47266,-75.2441 11.4502,-77.0264Q13.4277,-78.8086 16.2109,-78.8086Q18.9453,-78.8086 20.9961,-77.0508Q23.0469,-75.293 23.0469,-72.2168Q23.0469,-69.3359 20.9961,-67.5049Q18.9453,-65.6738 16.2109,-65.6738ZM21.2402,-4.98047Q21.2402,-3.36914 29.1992,-2.39258L29.1992,1.12305L3.17383,1.12305L3.17383,-2.39258Q12.0605,-3.36914 12.0605,-4.98047Q12.1582,-8.10547 12.207,-13.4521Q12.2559,-18.7988 12.2559,-22.7051L12.2559,-28.2227Q12.2559,-32.9102 12.1826,-36.6455Q12.1094,-40.3809 12.0117,-43.8477Q12.0117,-46.5332 2.68555,-46.5332L2.68555,-48.8281L19.043,-53.5156L21.2402,-51.8555L21.0449,-37.5977L21.0449,-22.7051Q21.0449,-18.7988 21.0938,-13.4521Q21.1426,-8.10547 21.2402,-4.98047Z"></path><path transform="translate(376 200)" d="M54.9316,-4.98047Q54.9316,-2.88086 62.9395,-1.41602L62.9395,1.12305L36.9629,1.12305L36.9629,-1.41602Q45.6543,-2.88086 45.6543,-4.98047Q45.752,-8.10547 45.8252,-13.3789Q45.8984,-18.6523 45.8984,-22.7051L45.8984,-33.1055Q45.8984,-40.5273 43.7256,-43.2129Q41.5527,-45.8984 37.3047,-45.8984Q33.9355,-45.8984 29.8828,-44.1406Q25.8301,-42.3828 21.1426,-37.793L21.1426,-22.7051Q21.1426,-18.7988 21.1914,-13.4521Q21.2402,-8.10547 21.3379,-4.98047Q21.3379,-2.88086 29.3457,-1.41602L29.3457,1.12305L3.27148,1.12305L3.27148,-1.41602Q12.0605,-2.88086 12.0605,-4.98047Q12.1582,-8.10547 12.207,-13.4521Q12.2559,-18.7988 12.2559,-22.7051L12.2559,-28.0762Q12.2559,-33.0566 12.1826,-36.9141Q12.1094,-40.7715 12.0117,-44.7754Q12.0117,-45.9473 2.7832,-46.9238L2.7832,-48.7305L18.0664,-53.5645L20.166,-51.9043L20.752,-44.5801Q23.8281,-47.998 29.3457,-50.8057Q34.8633,-53.6133 40.0879,-53.6133Q47.2168,-53.6133 50.9766,-48.8281Q54.7363,-44.043 54.7363,-33.3008L54.7363,-22.7051Q54.7363,-18.6523 54.7852,-13.3789Q54.834,-8.10547 54.9316,-4.98047Z"></path><path transform="translate(441 200)" d="M13.623,-30.7129L37.793,-30.6152Q39.9902,-30.6152 40.6738,-31.6406Q41.3574,-32.666 41.3574,-34.8145Q41.3574,-38.1836 39.8193,-41.1865Q38.2812,-44.1895 35.498,-46.0449Q32.7148,-47.9004 28.9062,-47.9004Q25.1953,-47.9004 21.8506,-45.8008Q18.5059,-43.7012 16.2598,-39.5752Q14.0137,-35.4492 13.623,-30.7129ZM49.1699,-25.0977L13.4277,-25.0977Q13.5254,-18.75 15.8936,-13.9893Q18.2617,-9.22852 22.1924,-6.98242Q26.123,-4.73633 31.1035,-4.73633Q36.1328,-4.73633 39.7217,-6.5918Q43.3105,-8.44727 46.875,-12.5L50.3418,-9.91211Q46.7285,-3.66211 41.3818,-0.561523Q36.0352,2.53906 29.2969,2.53906Q22.2168,2.53906 16.4795,-0.65918Q10.7422,-3.85742 7.39746,-10.1074Q4.05273,-16.3574 4.05273,-25.3906Q4.05273,-33.9355 7.54395,-40.2588Q11.0352,-46.582 16.7969,-50.0977Q22.5586,-53.6133 29.2969,-53.6133Q35.498,-53.6133 40.2344,-50.9033Q44.9707,-48.1934 47.6074,-43.335Q50.2441,-38.4766 50.2441,-32.1777Q50.2441,-28.125 49.1699,-25.0977Z"></path><path transform="translate(495 200)" d="M23.584,-30.957L27.8809,-29.4922Q35.791,-26.5137 39.2578,-22.6807Q42.7246,-18.8477 42.7246,-13.3789Q42.7246,-9.13086 40.3809,-5.46875Q38.0371,-1.80664 33.3496,0.366211Q28.6621,2.53906 21.6797,2.53906Q17.041,2.53906 13.208,1.53809Q9.375,0.537109 4.6875,-1.66016L4.3457,-14.9414L7.71484,-14.9414Q11.4746,-5.66406 12.793,-4.98047Q14.209,-4.29688 16.5039,-3.80859Q18.7988,-3.32031 21.7773,-3.32031Q28.1738,-3.32031 31.1279,-5.7373Q34.082,-8.1543 34.082,-11.8164Q34.082,-14.8926 31.9336,-16.9678Q29.7852,-19.043 24.1211,-21.0449L19.1895,-22.8027Q13.0859,-25.0977 9.22852,-28.6621Q5.37109,-32.2266 5.37109,-38.1836Q5.37109,-44.6289 10.3516,-49.1211Q15.332,-53.6133 24.4141,-53.6133Q29.0039,-53.6133 32.5439,-52.4658Q36.084,-51.3184 40.332,-48.7305L39.9902,-36.4746L36.4258,-36.4746Q33.7402,-44.9707 32.2754,-45.752Q28.6133,-47.9004 24.3164,-47.9004Q18.9453,-47.9004 16.4795,-45.6787Q14.0137,-43.457 14.0137,-40.0879Q14.0137,-36.7676 16.1621,-34.8389Q18.3105,-32.9102 23.584,-30.957Z"></path><path transform="translate(542 200)" d="M13.623,-30.7129L37.793,-30.6152Q39.9902,-30.6152 40.6738,-31.6406Q41.3574,-32.666 41.3574,-34.8145Q41.3574,-38.1836 39.8193,-41.1865Q38.2812,-44.1895 35.498,-46.0449Q32.7148,-47.9004 28.9062,-47.9004Q25.1953,-47.9004 21.8506,-45.8008Q18.5059,-43.7012 16.2598,-39.5752Q14.0137,-35.4492 13.623,-30.7129ZM49.1699,-25.0977L13.4277,-25.0977Q13.5254,-18.75 15.8936,-13.9893Q18.2617,-9.22852 22.1924,-6.98242Q26.123,-4.73633 31.1035,-4.73633Q36.1328,-4.73633 39.7217,-6.5918Q43.3105,-8.44727 46.875,-12.5L50.3418,-9.91211Q46.7285,-3.66211 41.3818,-0.561523Q36.0352,2.53906 29.2969,2.53906Q22.2168,2.53906 16.4795,-0.65918Q10.7422,-3.85742 7.39746,-10.1074Q4.05273,-16.3574 4.05273,-25.3906Q4.05273,-33.9355 7.54395,-40.2588Q11.0352,-46.582 16.7969,-50.0977Q22.5586,-53.6133 29.2969,-53.6133Q35.498,-53.6133 40.2344,-50.9033Q44.9707,-48.1934 47.6074,-43.335Q50.2441,-38.4766 50.2441,-32.1777Q50.2441,-28.125 49.1699,-25.0977Z"></path><path transform="translate(596 200)" d=""></path><path transform="translate(622 200)" d="M104.102,-73.7305L104.102,-70.8984Q95.0195,-69.5801 94.1895,-67.3828L75.7812,1.9043L70.459,1.9043L52.1973,-56.1035L34.6191,1.9043L29.5898,1.9043L9.91211,-67.4805Q9.13086,-69.6777 0.292969,-70.8984L0.292969,-73.7305L30.0293,-73.7305L30.0293,-70.8984Q19.0918,-69.4824 19.7266,-67.4316L33.6914,-16.1133L49.7559,-67.4316Q50.4883,-69.7754 39.2578,-70.8984L39.2578,-73.7305L68.9453,-73.7305L68.9453,-70.8984Q57.1289,-69.7754 58.0566,-67.4316L74.0234,-15.3809L87.5,-67.334Q88.2812,-69.5801 77.3926,-70.8984L77.3926,-73.7305L104.102,-73.7305Z"></path><path transform="translate(718 200)" d="M13.623,-30.7129L37.793,-30.6152Q39.9902,-30.6152 40.6738,-31.6406Q41.3574,-32.666 41.3574,-34.8145Q41.3574,-38.1836 39.8193,-41.1865Q38.2812,-44.1895 35.498,-46.0449Q32.7148,-47.9004 28.9062,-47.9004Q25.1953,-47.9004 21.8506,-45.8008Q18.5059,-43.7012 16.2598,-39.5752Q14.0137,-35.4492 13.623,-30.7129ZM49.1699,-25.0977L13.4277,-25.0977Q13.5254,-18.75 15.8936,-13.9893Q18.2617,-9.22852 22.1924,-6.98242Q26.123,-4.73633 31.1035,-4.73633Q36.1328,-4.73633 39.7217,-6.5918Q43.3105,-8.44727 46.875,-12.5L50.3418,-9.91211Q46.7285,-3.66211 41.3818,-0.561523Q36.0352,2.53906 29.2969,2.53906Q22.2168,2.53906 16.4795,-0.65918Q10.7422,-3.85742 7.39746,-10.1074Q4.05273,-16.3574 4.05273,-25.3906Q4.05273,-33.9355 7.54395,-40.2588Q11.0352,-46.582 16.7969,-50.0977Q22.5586,-53.6133 29.2969,-53.6133Q35.498,-53.6133 40.2344,-50.9033Q44.9707,-48.1934 47.6074,-43.335Q50.2441,-38.4766 50.2441,-32.1777Q50.2441,-28.125 49.1699,-25.0977Z"></path><path transform="translate(771 200)" d="M20.8008,-40.4297L20.8008,-10.4004Q24.0234,-7.22656 27.4414,-5.71289Q30.8594,-4.19922 34.2773,-4.19922Q38.1348,-4.19922 41.5039,-6.37207Q44.873,-8.54492 46.9727,-13.2324Q49.0723,-17.9199 49.0723,-25.5859Q49.0723,-36.2305 44.9707,-41.5527Q40.8691,-46.875 34.6191,-46.875Q31.5918,-46.875 28.1738,-45.5811Q24.7559,-44.2871 20.8008,-40.4297ZM20.6055,-64.1113L20.6055,-47.0215Q22.8027,-49.5117 27.3926,-51.5625Q31.9824,-53.6133 36.5234,-53.6133Q42.8711,-53.6133 47.8516,-50.1953Q52.832,-46.7773 55.6396,-40.625Q58.4473,-34.4727 58.4473,-26.2207Q58.4473,-17.6758 55.542,-11.2061Q52.6367,-4.73633 47.4609,-1.09863Q42.2852,2.53906 35.498,2.53906Q31.3477,2.53906 27.002,0.708008Q22.6562,-1.12305 20.4102,-3.85742L19.8242,2.05078L2.88086,1.07422L2.88086,-1.9043Q11.6699,-3.36914 11.6699,-4.98047Q11.7676,-8.20312 11.8164,-13.501Q11.8652,-18.7988 11.8652,-22.7051L11.8652,-72.3145Q11.8652,-74.2676 2.68555,-75.7324L2.68555,-77.7832L18.3594,-81.4941L20.9473,-80.1758L20.6055,-64.1113Z"></path><path transform="translate(834 200)" d=""></path><path transform="translate(860 200)" d="M51.2695,-67.6758L24.9023,-67.6758Q24.7559,-61.6211 24.7314,-54.126Q24.707,-46.6309 24.707,-39.8438L41.3086,-39.8438Q43.1152,-39.8926 44.5801,-50.4395L48.3398,-50.4395L48.3398,-22.9004L44.5801,-22.9004Q43.1152,-33.9844 41.2109,-33.9844L24.707,-33.9844Q24.707,-26.6113 24.7314,-19.043Q24.7559,-11.4746 24.9023,-5.22461Q24.9023,-3.27148 36.0352,-1.80664L36.0352,1.12305L4.29688,1.12305L4.29688,-1.80664Q14.9902,-3.27148 14.9902,-5.22461Q15.0391,-11.377 15.0635,-18.7744Q15.0879,-26.1719 15.0879,-33.4961L15.0879,-39.1113Q15.0879,-46.5332 15.0635,-53.8818Q15.0391,-61.2305 14.9902,-67.4805Q14.9902,-69.4336 4.29688,-70.4102L4.29688,-73.7305L59.375,-73.7305L60.1562,-53.3691L56.1035,-53.3691Q54.1504,-67.6758 51.2695,-67.6758Z"></path><path transform="translate(918 200)" d="M29.3945,2.53906Q22.998,2.53906 17.2119,-0.512695Q11.4258,-3.56445 7.73926,-9.79004Q4.05273,-16.0156 4.05273,-25.3906Q4.05273,-34.7656 7.73926,-41.04Q11.4258,-47.3145 17.2363,-50.4639Q23.0469,-53.6133 29.3945,-53.6133Q35.7422,-53.6133 41.5771,-50.4639Q47.4121,-47.3145 51.123,-41.04Q54.834,-34.7656 54.834,-25.3906Q54.834,-16.0156 51.0986,-9.79004Q47.3633,-3.56445 41.5527,-0.512695Q35.7422,2.53906 29.3945,2.53906ZM29.3945,-3.32031Q36.6699,-3.32031 40.918,-8.93555Q45.166,-14.5508 45.166,-25.3906Q45.166,-36.2305 40.8936,-42.0654Q36.6211,-47.9004 29.3945,-47.9004Q22.1191,-47.9004 17.9199,-42.0654Q13.7207,-36.2305 13.7207,-25.3906Q13.7207,-14.5508 17.9199,-8.93555Q22.1191,-3.32031 29.3945,-3.32031Z"></path><path transform="translate(977 200)" d="M54.9316,-4.98047Q54.9316,-2.88086 62.9395,-1.41602L62.9395,1.12305L36.9629,1.12305L36.9629,-1.41602Q45.6543,-2.88086 45.6543,-4.98047Q45.752,-8.10547 45.8252,-13.3789Q45.8984,-18.6523 45.8984,-22.7051L45.8984,-33.1055Q45.8984,-40.5273 43.7256,-43.2129Q41.5527,-45.8984 37.3047,-45.8984Q33.9355,-45.8984 29.8828,-44.1406Q25.8301,-42.3828 21.1426,-37.793L21.1426,-22.7051Q21.1426,-18.7988 21.1914,-13.4521Q21.2402,-8.10547 21.3379,-4.98047Q21.3379,-2.88086 29.3457,-1.41602L29.3457,1.12305L3.27148,1.12305L3.27148,-1.41602Q12.0605,-2.88086 12.0605,-4.98047Q12.1582,-8.10547 12.207,-13.4521Q12.2559,-18.7988 12.2559,-22.7051L12.2559,-28.0762Q12.2559,-33.0566 12.1826,-36.9141Q12.1094,-40.7715 12.0117,-44.7754Q12.0117,-45.9473 2.7832,-46.9238L2.7832,-48.7305L18.0664,-53.5645L20.166,-51.9043L20.752,-44.5801Q23.8281,-47.998 29.3457,-50.8057Q34.8633,-53.6133 40.0879,-53.6133Q47.2168,-53.6133 50.9766,-48.8281Q54.7363,-44.043 54.7363,-33.3008L54.7363,-22.7051Q54.7363,-18.6523 54.7852,-13.3789Q54.834,-8.10547 54.9316,-4.98047Z"></path><path transform="translate(1042 200)" d="M32.8125,-6.93359L35.5957,-2.97852Q30.6641,2.53906 22.9004,2.53906Q9.91211,2.53906 10.2539,-11.377Q10.2539,-13.1348 10.3271,-14.9902Q10.4004,-16.8457 10.4004,-19.5801L10.4004,-45.8984L0.195312,-45.8984L0.195312,-51.416L10.7422,-52.3438L12.8418,-67.5293L19.873,-67.5293L19.3848,-52.2461L34.3262,-52.2461L34.3262,-45.8984L19.2383,-45.8984L19.2383,-11.6211Q19.2383,-7.27539 20.6787,-5.54199Q22.1191,-3.80859 24.8047,-3.80859Q26.7578,-3.80859 28.3203,-4.44336Q29.8828,-5.07812 32.8125,-6.93359Z"></path><path transform="translate(1077 200)" d=""></path><path transform="translate(1103 200)" d="M32.3242,-67.8711L24.9023,-67.8711Q24.7559,-61.6699 24.7314,-54.1748Q24.707,-46.6797 24.707,-39.1113L24.707,-34.3262L30.4199,-34.3262Q37.8906,-34.3262 42.3584,-36.5234Q46.8262,-38.7207 48.8525,-42.5781Q50.8789,-46.4355 50.8789,-51.5137Q50.8789,-59.4727 46.5332,-63.6719Q42.1875,-67.8711 32.3242,-67.8711ZM30.0781,-28.4668L24.707,-28.4668Q24.707,-23.3887 24.7314,-17.0654Q24.7559,-10.7422 24.9023,-5.22461Q24.9023,-3.32031 36.0352,-1.80664L36.0352,1.12305L4.29688,1.12305L4.29688,-1.80664Q14.9902,-3.32031 14.9902,-5.22461Q15.0391,-11.377 15.0635,-18.7744Q15.0879,-26.1719 15.0879,-33.4961L15.0879,-39.1113Q15.0879,-46.5332 15.0635,-53.8818Q15.0391,-61.2305 14.9902,-67.4805Q14.9902,-68.9941 4.29688,-70.459L4.29688,-73.7305L33.6914,-73.7305Q47.1191,-73.7305 53.9795,-67.6514Q60.8398,-61.5723 60.8398,-51.5137Q60.8398,-45.0195 57.5928,-39.7949Q54.3457,-34.5703 47.5342,-31.5186Q40.7227,-28.4668 30.0781,-28.4668Z"></path><path transform="translate(1165 200)" d="M30.7129,1.12305L3.36914,1.12305L3.36914,-1.41602Q12.0605,-3.36914 12.0605,-4.98047Q12.2559,-12.207 12.2559,-25.3906Q12.2559,-37.2559 12.0117,-44.7754Q12.0117,-45.459 2.7832,-46.4355L2.7832,-48.7305L18.0664,-53.5645L20.166,-51.9043L20.8008,-41.8945Q21.582,-43.9941 24.9268,-47.6318Q28.2715,-51.2695 31.2988,-52.5391Q33.8867,-53.6133 36.6211,-53.6133Q39.4043,-53.6133 41.748,-52.5391Q44.0918,-51.4648 45.2148,-49.3164Q45.2148,-41.9922 39.0137,-41.9922Q38.0371,-41.9922 37.1582,-42.1875Q34.9121,-42.6758 32.1777,-45.2148L31.4941,-45.8008Q28.5156,-44.2383 26.123,-41.2109Q24.6094,-39.3066 23.3398,-36.8164Q21.1426,-32.4219 21.1426,-31.7871Q21.1426,-12.4023 21.3379,-4.98047Q21.3379,-3.36914 30.7129,-1.41602L30.7129,1.12305Z"></path><path transform="translate(1208 200)" d="M29.3945,2.53906Q22.998,2.53906 17.2119,-0.512695Q11.4258,-3.56445 7.73926,-9.79004Q4.05273,-16.0156 4.05273,-25.3906Q4.05273,-34.7656 7.73926,-41.04Q11.4258,-47.3145 17.2363,-50.4639Q23.0469,-53.6133 29.3945,-53.6133Q35.7422,-53.6133 41.5771,-50.4639Q47.4121,-47.3145 51.123,-41.04Q54.834,-34.7656 54.834,-25.3906Q54.834,-16.0156 51.0986,-9.79004Q47.3633,-3.56445 41.5527,-0.512695Q35.7422,2.53906 29.3945,2.53906ZM29.3945,-3.32031Q36.6699,-3.32031 40.918,-8.93555Q45.166,-14.5508 45.166,-25.3906Q45.166,-36.2305 40.8936,-42.0654Q36.6211,-47.9004 29.3945,-47.9004Q22.1191,-47.9004 17.9199,-42.0654Q13.7207,-36.2305 13.7207,-25.3906Q13.7207,-14.5508 17.9199,-8.93555Q22.1191,-3.32031 29.3945,-3.32031Z"></path><path transform="translate(1267 200)" d="M2.49023,-48.8281L18.6035,-53.5156L20.9473,-51.9043L20.6055,-37.5977L20.6055,-12.4023Q20.6055,-2.24609 20.1904,4.10156Q19.7754,10.4492 18.4326,14.5752Q17.0898,18.7012 14.3066,21.8262Q11.4746,25.1953 8.27637,26.7578Q5.07812,28.3203 0.78125,28.3203Q-3.95508,28.3203 -6.29883,26.5869Q-8.64258,24.8535 -8.83789,22.6074Q-7.4707,17.9688 -2.49023,17.9688Q-0.585938,17.9688 1.19629,18.6279Q2.97852,19.2871 5.12695,20.6543L6.73828,21.7773Q7.95898,20.9961 9.13086,18.9453Q10.6934,15.6738 11.3281,8.56934Q11.9629,1.46484 11.9629,-9.91211L11.9629,-28.0762Q11.9629,-33.0566 11.8896,-36.9385Q11.8164,-40.8203 11.7188,-43.8477Q11.7188,-46.1426 2.49023,-45.5566L2.49023,-48.8281ZM16.0156,-78.8086Q18.75,-78.8086 20.7764,-77.0264Q22.8027,-75.2441 22.8027,-72.2168Q22.8027,-69.3359 20.7764,-67.5049Q18.75,-65.6738 16.0156,-65.6738Q13.2324,-65.6738 11.2549,-67.5049Q9.27734,-69.3359 9.27734,-72.2168Q9.27734,-75.2441 11.2549,-77.0264Q13.2324,-78.8086 16.0156,-78.8086Z"></path><path transform="translate(1297 200)" d="M13.623,-30.7129L37.793,-30.6152Q39.9902,-30.6152 40.6738,-31.6406Q41.3574,-32.666 41.3574,-34.8145Q41.3574,-38.1836 39.8193,-41.1865Q38.2812,-44.1895 35.498,-46.0449Q32.7148,-47.9004 28.9062,-47.9004Q25.1953,-47.9004 21.8506,-45.8008Q18.5059,-43.7012 16.2598,-39.5752Q14.0137,-35.4492 13.623,-30.7129ZM49.1699,-25.0977L13.4277,-25.0977Q13.5254,-18.75 15.8936,-13.9893Q18.2617,-9.22852 22.1924,-6.98242Q26.123,-4.73633 31.1035,-4.73633Q36.1328,-4.73633 39.7217,-6.5918Q43.3105,-8.44727 46.875,-12.5L50.3418,-9.91211Q46.7285,-3.66211 41.3818,-0.561523Q36.0352,2.53906 29.2969,2.53906Q22.2168,2.53906 16.4795,-0.65918Q10.7422,-3.85742 7.39746,-10.1074Q4.05273,-16.3574 4.05273,-25.3906Q4.05273,-33.9355 7.54395,-40.2588Q11.0352,-46.582 16.7969,-50.0977Q22.5586,-53.6133 29.2969,-53.6133Q35.498,-53.6133 40.2344,-50.9033Q44.9707,-48.1934 47.6074,-43.335Q50.2441,-38.4766 50.2441,-32.1777Q50.2441,-28.125 49.1699,-25.0977Z"></path><path transform="translate(1351 200)" d="M29.1016,2.53906Q21.4844,2.53906 15.7959,-0.976562Q10.1074,-4.49219 6.98242,-10.791Q3.85742,-17.0898 3.85742,-25.4883Q3.85742,-34.2773 7.54395,-40.6006Q11.2305,-46.9238 17.1631,-50.2686Q23.0957,-53.6133 29.7852,-53.6133Q36.8164,-53.6133 42.2119,-49.9023Q47.6074,-46.1914 49.3652,-39.6484Q48.5352,-35.1562 44.2871,-35.1562Q39.7461,-35.1562 38.623,-39.8926L37.5,-44.7754Q37.0605,-46.4355 36.4746,-46.6797Q33.7891,-47.9004 30.0781,-47.9004Q25.1953,-47.9004 21.3867,-45.3125Q17.5781,-42.7246 15.3564,-37.8418Q13.1348,-32.959 13.1348,-26.2207Q13.1348,-19.3848 15.4297,-14.5996Q17.7246,-9.81445 21.7041,-7.27539Q25.6836,-4.73633 30.8105,-4.73633Q35.3027,-4.73633 39.1113,-6.61621Q42.9199,-8.49609 46.2891,-12.9883L49.8535,-10.9863Q43.75,2.53906 29.1016,2.53906Z"></path><path transform="translate(1404 200)" d="M32.8125,-6.93359L35.5957,-2.97852Q30.6641,2.53906 22.9004,2.53906Q9.91211,2.53906 10.2539,-11.377Q10.2539,-13.1348 10.3271,-14.9902Q10.4004,-16.8457 10.4004,-19.5801L10.4004,-45.8984L0.195312,-45.8984L0.195312,-51.416L10.7422,-52.3438L12.8418,-67.5293L19.873,-67.5293L19.3848,-52.2461L34.3262,-52.2461L34.3262,-45.8984L19.2383,-45.8984L19.2383,-11.6211Q19.2383,-7.27539 20.6787,-5.54199Q22.1191,-3.80859 24.8047,-3.80859Q26.7578,-3.80859 28.3203,-4.44336Q29.8828,-5.07812 32.8125,-6.93359Z"></path></svg>