<svg xmlns="http://www.w3.org/2000/svg" xmlns:xlink="http://www.w3.org/1999/xlink" width="1451" height="200" viewBox="0 0 1475 224"><path transform="translate(0 100)" d="M19.873,-58.5938L45.8984,-58.5938L45.8984,-81.2012Q56.4941,-80.7617 56.4941,-78.6133Q56.4941,-77.2461 52.002,-75.5859L52.002,-58.5938L79.1016,-58.5938L83.2031,-63.6719Q89.6973,-58.3984 89.6973,-56.9824Q89.6973,-56.25 88.7695,-55.8105L85.9863,-54.1016L85.9863,-19.2871L79.9805,-19.2871L79.9805,-26.123L52.002,-26.123L52.002,7.17773L45.8984,7.17773L45.8984,-26.123L18.9941,-26.123L18.9941,-17.9199L12.9883,-17.9199L12.9883,-62.0117Q15.918,-60.791 19.873,-58.5938ZM18.9941,-56.1035L18.9941,-28.6133L45.8984,-28.6133L45.8984,-56.1035L18.9941,-56.1035ZM79.9805,-28.6133L79.9805,-56.1035L52.002,-56.1035L52.002,-28.6133L79.9805,-28.6133Z"></path><path transform="translate(100 100)" d="M26.9531,-59.2285L9.17969,-59.2285L8.05664,-61.7188L79.8828,-61.7188L85.5957,-69.1406Q89.8438,-65.332 93.3105,-61.1328L92.0898,-59.2285L73.584,-59.2285Q66.9922,-36.0352 55.2734,-21.8262Q70.1172,-8.34961 94.1895,-0.830078Q91.0645,2.00195 89.3066,5.27344Q65.6738,-4.05273 52.002,-17.627Q34.1309,0.244141 7.4707,6.98242L6.10352,4.6875Q30.0781,-3.02734 47.9004,-22.0215Q35.3516,-36.2305 26.9531,-59.2285ZM30.6641,-59.2285Q38.8672,-39.4531 51.2695,-25.8301Q61.8652,-39.9902 66.6992,-59.2285L30.6641,-59.2285ZM42.627,-82.666Q57.1777,-74.5605 57.1777,-68.0664Q57.1777,-63.0371 53.6133,-63.0371Q50.1953,-63.0371 49.5605,-67.2852Q48.4863,-73.6816 40.8691,-80.4199L42.627,-82.666Z"></path><path transform="translate(200 100)" d="M63.8672,-42.627Q67.627,-53.5156 70.3613,-65.1367Q78.9062,-62.2559 78.5645,-60.2539Q78.3691,-59.0332 74.707,-59.0332Q72.2656,-48.8281 67.8223,-37.4512Q78.4668,-22.2656 77.5879,-17.041Q77.0508,-13.8672 74.2188,-14.4043Q72.5586,-14.7461 71.1426,-19.6289Q69.9219,-23.584 65.332,-31.3965Q58.7891,-16.7969 48.0957,-5.27344L46.2402,-6.98242Q56.2012,-21.0449 61.9629,-37.7441Q57.1289,-45.6055 50.2441,-53.5156L51.7578,-55.2246Q59.1797,-48.4863 63.8672,-42.627ZM36.377,-43.457Q39.3066,-51.2695 42.627,-64.4531Q51.0742,-62.1094 50.6836,-59.9121Q50.4883,-58.5938 46.7773,-58.5938Q44.2383,-48.584 40.1855,-38.4277Q50,-24.9023 49.0723,-19.6289Q48.5352,-16.3086 45.8496,-16.8457Q44.1895,-17.1387 43.0176,-21.4355Q42.041,-24.9512 37.6953,-32.2266Q31.7383,-18.1152 21.5332,-7.4707L19.873,-9.22852Q28.3203,-21.582 34.4238,-38.3789Q29.0039,-47.3633 22.2656,-55.127L23.9746,-56.9824Q30.1758,-51.2695 36.377,-43.457ZM19.0918,-74.1211L80.0293,-74.1211L83.9355,-78.7109Q90.332,-74.1211 90.332,-72.3145Q90.332,-71.6309 89.4043,-71.0449L86.8164,-69.4336L86.8164,-2.29492Q86.8164,6.25 76.2207,6.10352Q76.2207,3.32031 74.0234,2.29492Q71.4355,1.17188 63.5254,-0L63.5254,-2.68555Q71.4844,-1.80664 77.4902,-1.80664Q80.9082,-1.80664 80.9082,-5.17578L80.9082,-71.6309L18.1152,-71.6309L18.1152,6.20117L12.207,6.20117L12.207,-77.5391L13.916,-76.709Q16.6016,-75.4883 19.0918,-74.1211Z"></path><path transform="translate(300 100)" d="M83.7402,-68.4082L87.7441,-73.291Q94.8242,-66.2109 94.8242,-64.5996Q94.8242,-63.7207 93.3594,-63.4277L90.0391,-62.8418Q86.2305,-58.7402 79.6387,-54.0039L77.7344,-55.6152Q81.8359,-61.0352 84.0332,-65.918L17.4316,-65.918Q17.4316,-65.332 17.5293,-64.6973Q17.9688,-57.4219 14.4043,-51.709Q12.3535,-48.3398 9.81445,-48.3398Q6.10352,-48.3398 6.10352,-51.8555Q6.10352,-53.2715 8.20312,-55.5176Q13.4277,-61.0352 14.3066,-72.2168L16.8457,-72.0215Q17.041,-70.8984 17.334,-68.4082L83.7402,-68.4082ZM53.6133,-25L53.6133,-0.78125Q53.6133,6.20117 43.0176,6.20117Q42.8711,3.125 39.4043,1.9043Q35.9863,0.683594 27.7832,-0.292969L27.7832,-3.07617Q37.5,-2.09961 43.6035,-2.09961Q47.7051,-2.09961 47.7051,-5.41992L47.7051,-25L8.00781,-25L6.78711,-27.4902L47.4121,-27.4902L47.4121,-39.6973Q51.2207,-39.1113 52.9297,-38.6719Q59.7656,-43.7988 65.2344,-50.1953L23.4863,-50.1953L22.2656,-52.6855L65.625,-52.6855L69.5312,-57.2754Q76.6113,-51.123 76.6113,-49.707Q76.6113,-48.9258 75.0977,-48.4863L71.9238,-47.7051Q64.3066,-41.9922 56.2012,-37.5977Q57.4219,-36.8652 57.4219,-36.2793Q57.4219,-35.3516 53.3203,-34.2773L53.3203,-27.4902L81.2988,-27.4902L86.7188,-34.4727Q91.1621,-30.3223 93.7012,-27.002L92.5293,-25L53.6133,-25ZM43.0176,-83.5938Q56.0547,-77.2949 56.0547,-72.0703Q56.0547,-68.6035 52.3926,-68.6035Q49.8047,-68.6035 49.0723,-71.8262Q48.0957,-76.3672 41.6504,-81.6406L43.0176,-83.5938Z"></path><path transform="translate(400 100)" d="M20.166,-5.27344L20.166,-44.6777L6.20117,-44.6777L5.32227,-47.168L19.3848,-47.168L22.9492,-51.9531Q29.3945,-46.7773 29.3945,-45.3613Q29.3945,-44.5801 28.4668,-43.9941L26.1719,-42.3828L26.1719,-7.95898Q35.8887,-12.5977 43.8965,-17.2852L44.873,-14.6484Q35.2539,-7.03125 24.7559,-0.195312L23.2422,2.92969Q22.5586,4.29688 21.875,4.29688Q20.8496,4.29688 16.9434,-2.97852L20.166,-5.27344ZM66.2598,-46.6309L66.2598,7.17773L60.2539,7.17773L60.2539,-46.6309L35.6445,-46.6309L34.5703,-49.1211L60.2539,-49.1211L60.2539,-79.9805Q71.3379,-79.6875 71.3379,-77.4902Q71.3379,-76.0742 66.2598,-74.4141L66.2598,-49.1211L82.5684,-49.1211L87.8906,-56.2988Q91.0645,-53.2715 94.6777,-48.6328L93.7012,-46.6309L66.2598,-46.6309ZM13.7207,-78.8086Q31.4941,-72.2168 31.4941,-63.916Q31.4941,-59.6191 27.5879,-59.6191Q25.3906,-59.6191 24.3164,-62.1094Q20.9473,-70.6543 12.4023,-76.709L13.7207,-78.8086Z"></path><path transform="translate(500 100)" d="M33.9844,-22.5098Q41.1621,-32.0801 46.875,-45.5078Q54.7852,-41.748 54.7852,-39.8926Q54.7852,-38.4766 50.293,-38.4766Q41.8457,-24.2676 36.1816,-17.6758Q39.9414,-10.6445 43.9941,-6.29883Q46.7773,-3.22266 47.9004,-3.22266Q50.0488,-3.22266 52.8809,-23.584L55.2734,-22.3145Q54.1992,-9.22852 54.1992,-6.10352Q54.1992,-0.0488281 57.1777,0.976562Q56.5918,5.17578 52.4902,5.17578Q48.9258,5.17578 44.0918,1.36719Q37.9395,-3.56445 32.7148,-13.2812Q22.0703,-2.05078 6.20117,5.81055L4.49219,3.90625Q20.459,-6.10352 30.0781,-18.3105Q24.3164,-32.2266 22.168,-50.0977L6.00586,-48.4863L4.78516,-50.9766L21.875,-52.5879Q20.7031,-63.2324 20.4102,-80.5176Q30.0781,-80.3711 30.0781,-78.2227Q30.0781,-77.1484 26.2695,-75.4883Q26.4648,-60.2539 27.0996,-54.0039Q27.1973,-53.7109 27.1973,-53.0762L45.5078,-54.7852L49.1699,-61.5234Q53.0273,-58.1543 55.8105,-55.3223L54.7852,-53.3203L27.3926,-50.5859Q29.6387,-33.1055 33.9844,-22.5098ZM33.8867,-76.6113Q47.6074,-71.7773 47.6074,-64.6973Q47.6074,-60.8887 43.9941,-60.8887Q41.9434,-60.8887 40.918,-64.3066Q39.1113,-70.7031 32.5684,-74.8047L33.8867,-76.6113ZM61.7676,-14.502L61.7676,-71.1914Q71.1914,-70.752 71.1914,-68.6035Q71.1914,-67.4316 67.2852,-66.0645L67.2852,-14.502L61.7676,-14.502ZM65.4785,-2.58789Q74.3164,-1.80664 79.1016,-1.80664Q82.2754,-1.80664 82.2754,-4.88281L82.2754,-81.2988Q91.8945,-80.8594 91.8945,-78.5156Q91.8945,-77.2949 87.9883,-76.123L87.9883,-2.49023Q87.9883,6.54297 77.9785,6.39648Q77.9785,3.36914 74.7559,2.00195Q72.5586,1.02539 65.4785,0.0976562L65.4785,-2.58789Z"></path><path transform="translate(0 200)" d="M61.8652,-52.9785L58.8867,-52.9785Q58.3984,-58.0566 56.4941,-62.1094Q53.6621,-68.1641 42.6758,-68.1641L34.4727,-68.1641L34.4727,-11.5723Q34.4727,-6.68945 37.1582,-5.17578Q39.209,-4.05273 45.0684,-3.75977L45.0684,-0.976562L16.9922,-0.976562L16.9922,-3.75977Q22.7051,-4.10156 24.8047,-4.98047Q27.5879,-6.15234 27.5879,-11.5723L27.5879,-68.1641L20.0684,-68.1641Q9.57031,-68.1641 6.39648,-62.5977Q4.24805,-59.0332 3.4668,-52.9785L0.683594,-52.9785L2.09961,-71.4844L60.8887,-71.4844L61.8652,-52.9785Z"></path><path transform="translate(62 200)" d="M59.8633,-0.976562L35.791,-0.976562L35.791,-3.75977Q38.9648,-3.75977 41.2598,-4.29688Q44.4824,-5.17578 44.4824,-10.1074L44.4824,-31.1035Q44.4824,-46.1914 33.3984,-46.1914Q22.5586,-46.1914 18.0664,-34.2285L18.0664,-10.1074Q18.0664,-5.61523 20.3613,-4.6875Q22.6074,-3.75977 26.7578,-3.75977L26.7578,-0.976562L2.68555,-0.976562L2.68555,-3.75977Q6.20117,-3.75977 8.25195,-4.39453Q11.4746,-5.27344 11.4746,-10.1074L11.4746,-62.3047Q11.4746,-66.8457 9.17969,-67.7734Q7.66602,-68.4082 2.7832,-68.4082L2.7832,-71.4844Q11.0352,-71.6309 18.0664,-72.998L18.0664,-40.8203Q24.5117,-50.4883 34.7656,-50.4883Q51.1719,-50.4883 51.1719,-32.5195L51.1719,-10.1074Q51.1719,-5.61523 53.4668,-4.6875Q55.7129,-3.75977 59.8633,-3.75977L59.8633,-0.976562Z"></path><path transform="translate(124 200)" d="M50.3906,-26.5137L12.6953,-26.5137L12.6953,-24.8047Q12.6953,-14.9414 18.7012,-8.78906Q23.7305,-3.80859 30.9082,-3.80859Q41.6504,-3.80859 47.5098,-14.209L50.1953,-12.1094Q43.7988,0.585938 29.7363,0.585938Q19.2871,0.585938 12.5,-6.20117Q5.71289,-13.1836 5.71289,-24.9023Q5.71289,-37.3535 12.8906,-44.5312Q19.1406,-50.9277 28.8086,-50.9277Q38.1836,-50.9277 43.9941,-44.9219Q50.3906,-38.5254 50.3906,-28.3203L50.3906,-26.5137ZM43.6035,-30.3223Q43.3105,-38.916 38.623,-43.6523Q34.5703,-47.5586 28.7109,-47.5586Q21.7285,-47.5586 17.0898,-41.4551Q13.7695,-37.1094 13.0371,-30.3223L43.6035,-30.3223Z"></path><path transform="translate(180 200)" d=""></path><path transform="translate(209 200)" d="M69.7754,-23.1934Q66.6016,-11.2305 58.7891,-4.88281Q50.9277,1.51367 40.0879,1.51367Q25.8789,1.51367 16.6016,-7.76367Q6.00586,-18.2129 6.00586,-35.8887Q6.00586,-53.5156 16.7969,-64.4531Q26.2695,-73.9746 40.1855,-73.9746Q51.1719,-73.9746 59.4727,-68.1152Q61.5234,-66.6992 62.3047,-66.6992Q63.8184,-66.6992 64.0137,-70.8008L67.0898,-70.8008L67.0898,-50.6836L64.1113,-50.6836Q62.6953,-57.8613 58.3008,-62.8906Q51.5625,-70.3613 40.7227,-70.3613Q26.1719,-70.3613 19.0918,-57.7637Q14.1113,-48.6816 14.1113,-36.6699Q14.1113,-22.3145 21.582,-13.1836Q29.2969,-3.66211 41.4062,-3.66211Q59.9609,-3.66211 66.1133,-24.4141L69.7754,-23.1934Z"></path><path transform="translate(282 200)" d="M59.8633,-0.976562L35.791,-0.976562L35.791,-3.75977Q38.9648,-3.75977 41.2598,-4.29688Q44.4824,-5.17578 44.4824,-10.1074L44.4824,-31.1035Q44.4824,-46.1914 33.3984,-46.1914Q22.5586,-46.1914 18.0664,-34.2285L18.0664,-10.1074Q18.0664,-5.61523 20.3613,-4.6875Q22.6074,-3.75977 26.7578,-3.75977L26.7578,-0.976562L2.68555,-0.976562L2.68555,-3.75977Q6.20117,-3.75977 8.25195,-4.39453Q11.4746,-5.27344 11.4746,-10.1074L11.4746,-62.3047Q11.4746,-66.8457 9.17969,-67.7734Q7.66602,-68.4082 2.7832,-68.4082L2.7832,-71.4844Q11.0352,-71.6309 18.0664,-72.998L18.0664,-40.8203Q24.5117,-50.4883 34.7656,-50.4883Q51.1719,-50.4883 51.1719,-32.5195L51.1719,-10.1074Q51.1719,-5.61523 53.4668,-4.6875Q55.7129,-3.75977 59.8633,-3.75977L59.8633,-0.976562Z"></path><path transform="translate(344 200)" d="M15.7715,-71.7773Q17.9199,-71.7773 19.3848,-70.2637Q20.8984,-68.75 20.8984,-66.6504Q20.8984,-61.6699 15.7715,-61.6699Q10.791,-61.6699 10.791,-66.6504Q10.791,-71.7773 15.7715,-71.7773ZM27.5879,-0.976562L3.80859,-0.976562L3.80859,-3.75977Q7.08008,-3.75977 9.17969,-4.39453Q12.5,-5.27344 12.5,-10.1074L12.5,-39.9902Q12.5,-44.7266 10.1074,-45.6055Q8.59375,-46.1914 3.80859,-46.1914L3.80859,-49.2188Q11.9629,-49.3652 19.0918,-50.8301L19.0918,-10.1074Q19.0918,-5.61523 21.3867,-4.6875Q23.6328,-3.75977 27.5879,-3.75977L27.5879,-0.976562Z"></path><path transform="translate(374 200)" d="M60.9863,-0.976562L36.9141,-0.976562L36.9141,-3.75977Q40.1367,-3.75977 42.2852,-4.29688Q45.6055,-5.17578 45.6055,-10.1074L45.6055,-31.1035Q45.6055,-46.1914 34.4727,-46.1914Q23.6328,-46.1914 19.2871,-34.2285L19.2871,-10.1074Q19.2871,-5.51758 21.9727,-4.49219Q23.9258,-3.75977 27.8809,-3.75977L27.8809,-0.976562L3.80859,-0.976562L3.80859,-3.75977Q7.37305,-3.75977 9.27734,-4.39453Q12.5977,-5.27344 12.5977,-10.1074L12.5977,-39.9902Q12.5977,-44.7266 10.2051,-45.6055Q8.54492,-46.1914 3.80859,-46.1914L3.80859,-49.2188Q12.4023,-49.3652 18.8965,-50.8301L18.8965,-40.332Q25.0488,-50.4883 35.8887,-50.4883Q52.2949,-50.4883 52.2949,-32.5195L52.2949,-10.1074Q52.2949,-5.56641 55.1758,-4.49219Q57.0312,-3.75977 60.9863,-3.75977L60.9863,-0.976562Z"></path><path transform="translate(437 200)" d="M50.3906,-26.5137L12.6953,-26.5137L12.6953,-24.8047Q12.6953,-14.9414 18.7012,-8.78906Q23.7305,-3.80859 30.9082,-3.80859Q41.6504,-3.80859 47.5098,-14.209L50.1953,-12.1094Q43.7988,0.585938 29.7363,0.585938Q19.2871,0.585938 12.5,-6.20117Q5.71289,-13.1836 5.71289,-24.9023Q5.71289,-37.3535 12.8906,-44.5312Q19.1406,-50.9277 28.8086,-50.9277Q38.1836,-50.9277 43.9941,-44.9219Q50.3906,-38.5254 50.3906,-28.3203L50.3906,-26.5137ZM43.6035,-30.3223Q43.3105,-38.916 38.623,-43.6523Q34.5703,-47.5586 28.7109,-47.5586Q21.7285,-47.5586 17.0898,-41.4551Q13.7695,-37.1094 13.0371,-30.3223L43.6035,-30.3223Z"></path><path transform="translate(493 200)" d="M37.3047,-34.4238Q36.5234,-40.0879 33.3008,-43.3594Q29.1016,-47.5586 23.1934,-47.5586Q18.3105,-47.5586 15.0879,-44.3359Q12.793,-41.8945 12.793,-38.5254Q12.793,-32.666 22.9004,-29.4922L25.4883,-28.7109Q33.8379,-26.0254 37.3047,-23.3887Q42.2852,-19.6289 42.2852,-13.3789Q42.2852,-5.95703 36.6699,-2.19727Q32.3242,0.78125 25.9766,0.78125Q20.3613,0.78125 14.0137,-2.68555Q11.8652,-3.95508 10.6934,-3.95508Q9.08203,-3.95508 9.08203,-0.488281L6.20117,-0.488281L6.20117,-18.7988L9.27734,-18.7988Q9.76562,-11.7188 13.5742,-7.91016Q18.457,-2.88086 25.7812,-2.88086Q36.1816,-2.88086 36.1816,-12.1094Q36.1816,-16.1621 33.1055,-18.7012Q31.0059,-20.3613 23.3887,-22.998L20.4102,-24.0234Q13.5254,-26.2695 11.1816,-28.2227Q6.78711,-31.6895 6.78711,-37.3047Q6.78711,-42.7734 10.8887,-46.7285Q15.3809,-50.9277 22.6074,-50.9277Q28.8574,-50.9277 33.7891,-47.9492Q35.2051,-47.1191 36.1816,-47.1191Q37.3047,-47.1191 37.5977,-50L40.0879,-50L40.0879,-34.4238L37.3047,-34.4238Z"></path><path transform="translate(541 200)" d="M50.3906,-26.5137L12.6953,-26.5137L12.6953,-24.8047Q12.6953,-14.9414 18.7012,-8.78906Q23.7305,-3.80859 30.9082,-3.80859Q41.6504,-3.80859 47.5098,-14.209L50.1953,-12.1094Q43.7988,0.585938 29.7363,0.585938Q19.2871,0.585938 12.5,-6.20117Q5.71289,-13.1836 5.71289,-24.9023Q5.71289,-37.3535 12.8906,-44.5312Q19.1406,-50.9277 28.8086,-50.9277Q38.1836,-50.9277 43.9941,-44.9219Q50.3906,-38.5254 50.3906,-28.3203L50.3906,-26.5137ZM43.6035,-30.3223Q43.3105,-38.916 38.623,-43.6523Q34.5703,-47.5586 28.7109,-47.5586Q21.7285,-47.5586 17.0898,-41.4551Q13.7695,-37.1094 13.0371,-30.3223L43.6035,-30.3223Z"></path><path transform="translate(597 200)" d=""></path><path transform="translate(626 200)" d="M96.6797,-68.6035Q94.3359,-68.6035 92.3828,-67.9688Q88.3789,-66.9434 86.377,-60.3027L67.8223,0.585938L64.5996,0.585938L49.3164,-51.1719L49.0234,-51.1719L32.1777,0.585938L29.0039,0.585938L10.1074,-59.7656Q8.00781,-66.5527 4.49219,-67.7734Q2.73438,-68.4082 0,-68.6035L0,-71.4844L25.8789,-71.4844L25.8789,-68.7012Q20.459,-68.5547 18.6035,-67.6758Q16.6992,-66.7969 16.6992,-64.3066Q16.6992,-62.3047 17.6758,-59.1797L31.8848,-12.4023L32.1777,-12.4023L47.2168,-58.3984L46.582,-60.6934Q44.9219,-67.041 41.2109,-68.0664Q39.2578,-68.5547 36.2793,-68.7012L36.2793,-71.4844L61.9141,-71.4844L61.9141,-68.7012Q57.5684,-68.5059 56.0059,-68.3105Q52.5879,-67.6758 52.5879,-64.502Q52.5879,-63.1348 53.5156,-59.9609L67.2852,-12.8906L67.5781,-12.8906L81.5918,-60.3027Q82.4219,-63.1836 82.4219,-64.502Q82.4219,-68.5547 72.998,-68.7012L72.998,-71.4844L96.6797,-71.4844L96.6797,-68.6035Z"></path><path transform="translate(722 200)" d="M50.3906,-26.5137L12.6953,-26.5137L12.6953,-24.8047Q12.6953,-14.9414 18.7012,-8.78906Q23.7305,-3.80859 30.9082,-3.80859Q41.6504,-3.80859 47.5098,-14.209L50.1953,-12.1094Q43.7988,0.585938 29.7363,0.585938Q19.2871,0.585938 12.5,-6.20117Q5.71289,-13.1836 5.71289,-24.9023Q5.71289,-37.3535 12.8906,-44.5312Q19.1406,-50.9277 28.8086,-50.9277Q38.1836,-50.9277 43.9941,-44.9219Q50.3906,-38.5254 50.3906,-28.3203L50.3906,-26.5137ZM43.6035,-30.3223Q43.3105,-38.916 38.623,-43.6523Q34.5703,-47.5586 28.7109,-47.5586Q21.7285,-47.5586 17.0898,-41.4551Q13.7695,-37.1094 13.0371,-30.3223L43.6035,-30.3223Z"></path><path transform="translate(778 200)" d="M16.6016,-40.7227Q22.7051,-50.6836 33.3984,-50.6836Q41.6992,-50.6836 47.6074,-44.7754Q54.6875,-37.6953 54.6875,-25.4883Q54.6875,-13.1836 47.5098,-5.95703Q41.4062,0.0976562 33.2031,0.0976562Q22.8027,0.0976562 16.7969,-8.30078L13.5254,-0.195312L10.1074,-0.195312L10.1074,-62.3047Q10.1074,-66.8945 7.91016,-67.7734Q6.39648,-68.4082 1.51367,-68.4082L1.51367,-71.4844Q10.0098,-71.6309 16.6016,-72.998L16.6016,-40.7227ZM16.6016,-31.2012L16.6016,-18.2129Q16.6016,-11.9629 23.0957,-7.32422Q27.5391,-4.10156 32.5195,-4.10156Q40.0879,-4.10156 44.2871,-11.2793Q47.6074,-16.8457 47.6074,-25.293Q47.6074,-36.5723 41.7969,-42.3828Q37.5977,-46.582 32.0312,-46.582Q24.6582,-46.582 19.6777,-39.6973Q16.6016,-35.5469 16.6016,-31.2012Z"></path><path transform="translate(838 200)" d=""></path><path transform="translate(867 200)" d="M62.4512,-51.709L59.4238,-51.709Q58.9844,-58.8379 56.543,-62.9883Q53.2227,-68.3105 39.4531,-68.3105L30.8105,-68.3105Q26.5137,-68.3105 24.3164,-67.1875Q22.0215,-65.8203 22.0215,-60.791L22.0215,-39.0137L32.7148,-39.0137Q38.916,-39.0137 40.8203,-41.7969Q42.7734,-44.6777 43.2129,-49.4141L46.1426,-49.4141L46.1426,-25.0977L43.2129,-25.0977Q42.7734,-29.9316 41.2598,-32.2754Q39.1113,-35.5957 32.7148,-35.5957L22.0215,-35.5957L22.0215,-11.5723Q22.0215,-6.68945 25,-5.17578Q27.0996,-4.05273 33.0078,-3.75977L33.0078,-0.976562L5.0293,-0.976562L5.0293,-3.75977Q10.3027,-4.10156 12.207,-4.98047Q15.2344,-6.34766 15.2344,-11.5723L15.2344,-60.6934Q15.2344,-65.4785 13.3301,-66.7969Q11.4746,-68.2129 5.0293,-68.7012L5.0293,-71.4844L61.2305,-71.4844L62.4512,-51.709Z"></path><path transform="translate(931 200)" d="M29.4434,-51.123Q39.3066,-51.123 45.9961,-44.4336Q53.2227,-37.207 53.2227,-25.5371Q53.2227,-13.1836 45.9961,-6.00586Q39.2578,0.585938 29.4434,0.585938Q19.5312,0.585938 12.8906,-6.00586Q5.71289,-13.1836 5.71289,-25.293Q5.71289,-37.207 13.0371,-44.5312Q19.6289,-51.123 29.4434,-51.123ZM29.4434,-47.6562Q22.0215,-47.6562 17.5293,-41.3574Q13.1348,-35.2539 13.1348,-25.293Q13.1348,-14.7949 17.9199,-8.78906Q22.3145,-3.17383 29.4434,-3.17383Q38.2812,-3.17383 42.5293,-10.9863Q45.8008,-17.1387 45.8008,-25.1953Q45.8008,-35.791 41.0156,-41.9434Q36.5234,-47.6562 29.4434,-47.6562Z"></path><path transform="translate(990 200)" d="M60.9863,-0.976562L36.9141,-0.976562L36.9141,-3.75977Q40.1367,-3.75977 42.2852,-4.29688Q45.6055,-5.17578 45.6055,-10.1074L45.6055,-31.1035Q45.6055,-46.1914 34.4727,-46.1914Q23.6328,-46.1914 19.2871,-34.2285L19.2871,-10.1074Q19.2871,-5.51758 21.9727,-4.49219Q23.9258,-3.75977 27.8809,-3.75977L27.8809,-0.976562L3.80859,-0.976562L3.80859,-3.75977Q7.37305,-3.75977 9.27734,-4.39453Q12.5977,-5.27344 12.5977,-10.1074L12.5977,-39.9902Q12.5977,-44.7266 10.2051,-45.6055Q8.54492,-46.1914 3.80859,-46.1914L3.80859,-49.2188Q12.4023,-49.3652 18.8965,-50.8301L18.8965,-40.332Q25.0488,-50.4883 35.8887,-50.4883Q52.2949,-50.4883 52.2949,-32.5195L52.2949,-10.1074Q52.2949,-5.56641 55.1758,-4.49219Q57.0312,-3.75977 60.9863,-3.75977L60.9863,-0.976562Z"></path><path transform="translate(1053 200)" d="M33.3008,-5.51758Q28.2227,1.2207 21.3867,1.2207Q10.3027,1.2207 10.3027,-11.377L10.3027,-45.5078L1.80664,-45.5078L1.80664,-48.6328Q8.00781,-48.7793 10.498,-52.4414Q12.6953,-55.5176 13.916,-62.8418L16.8945,-62.8418L16.8945,-49.2188L31.6895,-49.2188L31.6895,-45.5078L16.8945,-45.5078L16.8945,-13.2812Q16.8945,-3.07617 23.0957,-3.07617Q27.5391,-3.07617 31.1035,-7.71484L33.3008,-5.51758Z"></path><path transform="translate(1086 200)" d=""></path><path transform="translate(1115 200)" d="M5.0293,-71.4844L36.3281,-71.4844Q51.8555,-71.4844 58.3984,-64.209Q62.6953,-59.4238 62.6953,-52.5879Q62.6953,-32.1777 34.7168,-32.1777L22.1191,-32.1777L22.1191,-11.5723Q22.1191,-6.64062 24.9023,-5.17578Q26.9531,-4.05273 32.8125,-3.75977L32.8125,-0.976562L5.0293,-0.976562L5.0293,-3.75977Q10.3027,-4.10156 12.207,-4.98047Q15.2344,-6.34766 15.2344,-11.5723L15.2344,-60.5957Q15.2344,-65.4785 13.3301,-66.7969Q11.4746,-68.2129 5.0293,-68.7012L5.0293,-71.4844ZM22.1191,-35.9863L31.8359,-35.9863Q54.8828,-35.9863 54.8828,-52.002Q54.8828,-68.1641 34.1309,-68.1641L31.0059,-68.1641Q28.3691,-68.1641 26.2207,-67.6758Q22.1191,-66.6016 22.1191,-60.5957L22.1191,-35.9863Z"></path><path transform="translate(1179 200)" d="M18.7988,-38.0859Q21.0449,-43.5059 25.7812,-47.5098Q29.9805,-50.8301 34.668,-50.8301Q40.3809,-50.8301 40.3809,-45.7031Q40.3809,-41.1133 36.1816,-41.1133Q31.9824,-41.1133 31.9824,-45.2148Q31.9824,-45.459 32.1777,-46.6309Q28.2715,-46.2891 24.1699,-41.6016Q20.9473,-37.793 19.2871,-32.3242L19.2871,-10.1074Q19.2871,-5.56641 21.4844,-4.6875Q23.7305,-3.75977 28.2715,-3.75977L28.2715,-0.976562L3.80859,-0.976562L3.80859,-3.75977Q7.37305,-3.75977 9.27734,-4.39453Q12.5977,-5.27344 12.5977,-10.1074L12.5977,-39.9902Q12.5977,-44.7266 10.2051,-45.6055Q8.54492,-46.1914 3.90625,-46.1914L3.90625,-49.2188Q12.4512,-49.3652 18.7988,-50.8301L18.7988,-38.0859Z"></path><path transform="translate(1219 200)" d="M29.4434,-51.123Q39.3066,-51.123 45.9961,-44.4336Q53.2227,-37.207 53.2227,-25.5371Q53.2227,-13.1836 45.9961,-6.00586Q39.2578,0.585938 29.4434,0.585938Q19.5312,0.585938 12.8906,-6.00586Q5.71289,-13.1836 5.71289,-25.293Q5.71289,-37.207 13.0371,-44.5312Q19.6289,-51.123 29.4434,-51.123ZM29.4434,-47.6562Q22.0215,-47.6562 17.5293,-41.3574Q13.1348,-35.2539 13.1348,-25.293Q13.1348,-14.7949 17.9199,-8.78906Q22.3145,-3.17383 29.4434,-3.17383Q38.2812,-3.17383 42.5293,-10.9863Q45.8008,-17.1387 45.8008,-25.1953Q45.8008,-35.791 41.0156,-41.9434Q36.5234,-47.6562 29.4434,-47.6562Z"></path><path transform="translate(1278 200)" d="M15.7715,-71.7773Q17.8711,-71.7773 19.3848,-70.2637Q20.8984,-68.75 20.8984,-66.6504Q20.8984,-61.6699 15.7715,-61.6699Q10.791,-61.6699 10.791,-66.6504Q10.791,-71.7773 15.7715,-71.7773ZM18.9941,-50.8301L18.9941,2.88086Q18.9941,19.873 4.98047,19.873Q0.390625,19.873 -2.73438,17.3828Q-5.41992,15.1367 -5.41992,12.4512Q-5.41992,7.66602 -0.683594,7.66602Q3.61328,7.66602 3.61328,11.7676Q3.61328,14.5996 0.878906,15.4785Q2.29492,17.1875 4.98047,17.1875Q12.5,17.1875 12.5,3.80859L12.5,-40.0391Q12.5,-44.7266 10.1074,-45.6055Q8.44727,-46.2402 3.80859,-46.2402L3.80859,-49.2188Q11.9629,-49.3652 18.9941,-50.8301Z"></path><path transform="translate(1308 200)" d="M50.3906,-26.5137L12.6953,-26.5137L12.6953,-24.8047Q12.6953,-14.9414 18.7012,-8.78906Q23.7305,-3.80859 30.9082,-3.80859Q41.6504,-3.80859 47.5098,-14.209L50.1953,-12.1094Q43.7988,0.585938 29.7363,0.585938Q19.2871,0.585938 12.5,-6.20117Q5.71289,-13.1836 5.71289,-24.9023Q5.71289,-37.3535 12.8906,-44.5312Q19.1406,-50.9277 28.8086,-50.9277Q38.1836,-50.9277 43.9941,-44.9219Q50.3906,-38.5254 50.3906,-28.3203L50.3906,-26.5137ZM43.6035,-30.3223Q43.3105,-38.916 38.623,-43.6523Q34.5703,-47.5586 28.7109,-47.5586Q21.7285,-47.5586 17.0898,-41.4551Q13.7695,-37.1094 13.0371,-30.3223L43.6035,-30.3223Z"></path><path transform="translate(1364 200)" d="M49.3164,-12.1094Q42.7246,0.585938 29.1016,0.585938Q19.1406,0.585938 12.5977,-6.10352Q5.71289,-13.1348 5.71289,-24.8047Q5.71289,-37.0117 13.0371,-44.3359Q19.4336,-50.9277 29.3945,-50.9277Q37.793,-50.9277 43.4082,-46.5332Q47.7051,-43.1152 47.7051,-39.209Q47.7051,-34.082 43.1152,-34.082Q38.7207,-34.082 38.7207,-38.1836Q38.7207,-41.0645 41.1133,-42.0898Q37.5,-47.5586 29.7363,-47.5586Q20.9961,-47.5586 16.6504,-39.7461Q13.1348,-33.4961 13.1348,-25.3418Q13.1348,-16.1133 17.9199,-10.1074Q22.7051,-4.00391 30.3223,-4.00391Q40.5762,-4.00391 46.4355,-14.3066L49.3164,-12.1094Z"></path><path transform="translate(1418 200)" d="M33.3008,-5.51758Q28.2227,1.2207 21.3867,1.2207Q10.3027,1.2207 10.3027,-11.377L10.3027,-45.5078L1.80664,-45.5078L1.80664,-48.6328Q8.00781,-48.7793 10.498,-52.4414Q12.6953,-55.5176 13.916,-62.8418L16.8945,-62.8418L16.8945,-49.2188L31.6895,-49.2188L31.6895,-45.5078L16.8945,-45.5078L16.8945,-13.2812Q16.8945,-3.07617 23.0957,-3.07617Q27.5391,-3.07617 31.1035,-7.71484L33.3008,-5.51758Z"></path></svg>